# xmcd
#
# Track frame offsets:
# 150
# 8708
# 22444
# 35459
# 45319
# 56809
# 68989
# 75255
# 87234
# 97919
# 109632
# 126752
# 136693
# 145820
#
# Disc length: 2100 seconds
#
#
# Revision: 0
# Processed by: cddbd v1.5.2PL0 Copyright (c) Steve Scherf et al.
# Submitted via: FreeRIP 2.95 
#
DISCID=ae08320e
DTITLE=The Falcon - Unicornography [Australian Edition]
DYEAR=2006
DGENRE=Punk
TTITLE0=The Angry Cry of the Angry Pie
TTITLE1=Blackout
TTITLE2=The La-Z-Boy 500
TTITLE3=The Celebutard Chronicles
TTITLE4=Little Triggers
TTITLE5=The Routes We Wander
TTITLE6=The Longshoreman's Lament
TTITLE7=Unicorn Odyssey
TTITLE8=R.L. Burnouts Inc.
TTITLE9=Building the Even More Perfect Asshole Parade
TTITLE10=When I Give the Signal, Run!
TTITLE11=The Blood And The Frog
TTITLE12=Do You Want Fries With These Songs?
TTITLE13=Goin' Home
EXTD=By www.myspace.com/bachelorchow
EXTT0=
EXTT1=
EXTT2=
EXTT3=
EXTT4=
EXTT5=
EXTT6=
EXTT7=
EXTT8=
EXTT9=
EXTT10=
EXTT11=
EXTT12=
EXTT13=
PLAYORDER=
